<svg xmlns="http://www.w3.org/2000/svg" xmlns:xlink="http://www.w3.org/1999/xlink" xmlns:lucid="lucid" width="3996" height="3551"><g transform="translate(-1944 1360)" lucid:page-tab-id="HWEp-vi-RSFO"><path d="M-500-1500h6500v3500H-500z" fill="#fff"/><path d="M1606 131.35a6 6 0 0 1 6-6h348a6 6 0 0 1 6 6v183a6 6 0 0 1-6 6h-348a6 6 0 0 1-6-6z" stroke="#3a414a" stroke-width="2" fill="#fff"/><path d="M1606 194.68h360" stroke="#3a414a" stroke-width="2" fill="none"/><use xlink:href="#a" transform="matrix(1,0,0,1,1614.0008273514893,133.34738617078833) translate(98.01851851851852 18.111111111111114)"/><use xlink:href="#b" transform="matrix(1,0,0,1,1614.0008273514893,133.34738617078833) translate(105.95061728395062 44.777777777777786)"/><path d="M5089.33-1207.36h352v156h-352z" stroke="#3a414a" stroke-width="2" fill="#edf5ff"/><path d="M5089.33-1169.76h352m-352 59.1h352" stroke="#3a414a" stroke-width="2" fill="none"/><use xlink:href="#c" transform="matrix(1,0,0,1,5097.334160684823,-1199.3620784248124) translate(145.075 14.6)"/><use xlink:href="#d" transform="matrix(1,0,0,1,5101.334160684823,-1102.6620784248125) translate(0 25.6)"/><use xlink:href="#e" transform="matrix(1,0,0,1,5101.334160684823,-1102.6620784248125) translate(15.5 25.6)"/><use xlink:href="#f" transform="matrix(1,0,0,1,5101.334160684823,-1102.6620784248125) translate(112.25000000000001 25.6)"/><path d="M5089.33-497.36h352v177h-352z" stroke="#3a414a" stroke-width="2" fill="#edf5ff"/><path d="M5089.33-459.76h352m-352 80.7h352" stroke="#3a414a" stroke-width="2" fill="none"/><use xlink:href="#g" transform="matrix(1,0,0,1,5097.334160684823,-489.36207842481235) translate(142.575 14.6)"/><use xlink:href="#h" transform="matrix(1,0,0,1,5101.334160684823,-451.76207842481233) translate(0 25.299999999999997)"/><use xlink:href="#i" transform="matrix(1,0,0,1,5101.334160684823,-451.76207842481233) translate(10.95 25.299999999999997)"/><use xlink:href="#j" transform="matrix(1,0,0,1,5101.334160684823,-451.76207842481233) translate(0 46.9)"/><use xlink:href="#d" transform="matrix(1,0,0,1,5101.334160684823,-371.06207842481234) translate(0 25.6)"/><use xlink:href="#k" transform="matrix(1,0,0,1,5101.334160684823,-371.06207842481234) translate(15.5 25.6)"/><path d="M5148 212.64h352v156h-352z" stroke="#3a414a" stroke-width="2" fill="#edf5ff"/><path d="M5148 250.24h352m-352 59.1h352" stroke="#3a414a" stroke-width="2" fill="none"/><use xlink:href="#l" transform="matrix(1,0,0,1,5156.0008273514895,220.63792157518765) translate(99.125 14.6)"/><use xlink:href="#d" transform="matrix(1,0,0,1,5160.0008273514895,317.33792157518764) translate(0 25.6)"/><use xlink:href="#m" transform="matrix(1,0,0,1,5160.0008273514895,317.33792157518764) translate(15.5 25.6)"/><path d="M5236 1022.64h352v199h-352z" stroke="#3a414a" stroke-width="2" fill="#edf5ff"/><path d="M5236 1060.24h352m-352 59.1h352" stroke="#3a414a" stroke-width="2" fill="none"/><use xlink:href="#n" transform="matrix(1,0,0,1,5244.0008273514895,1030.6379215751876) translate(129.075 14.6)"/><use xlink:href="#d" transform="matrix(1,0,0,1,5248.0008273514895,1127.3379215751875) translate(0 25.5)"/><use xlink:href="#o" transform="matrix(1,0,0,1,5248.0008273514895,1127.3379215751875) translate(15.5 25.5)"/><use xlink:href="#d" transform="matrix(1,0,0,1,5248.0008273514895,1127.3379215751875) translate(0 47.1)"/><use xlink:href="#p" transform="matrix(1,0,0,1,5248.0008273514895,1127.3379215751875) translate(15.5 47.1)"/><use xlink:href="#d" transform="matrix(1,0,0,1,5248.0008273514895,1127.3379215751875) translate(0 68.7)"/><use xlink:href="#q" transform="matrix(1,0,0,1,5248.0008273514895,1127.3379215751875) translate(15.5 68.7)"/><path d="M4772 1832.64h352v156h-352z" stroke="#3a414a" stroke-width="2" fill="#edf5ff"/><path d="M4772 1870.24h352m-352 59.1h352" stroke="#3a414a" stroke-width="2" fill="none"/><use xlink:href="#r" transform="matrix(1,0,0,1,4780.0008273514895,1840.6379215751876) translate(142 14.6)"/><use xlink:href="#d" transform="matrix(1,0,0,1,4784.0008273514895,1937.3379215751875) translate(0 25.6)"/><use xlink:href="#s" transform="matrix(1,0,0,1,4784.0008273514895,1937.3379215751875) translate(15.5 25.6)"/><path d="M5324 1832.64h352v156h-352z" stroke="#3a414a" stroke-width="2" fill="#edf5ff"/><path d="M5324 1870.24h352m-352 59.1h352" stroke="#3a414a" stroke-width="2" fill="none"/><use xlink:href="#t" transform="matrix(1,0,0,1,5332.0008273514895,1840.6379215751876) translate(145.525 14.6)"/><use xlink:href="#d" transform="matrix(1,0,0,1,5336.0008273514895,1937.3379215751875) translate(0 25.6)"/><use xlink:href="#u" transform="matrix(1,0,0,1,5336.0008273514895,1937.3379215751875) translate(15.5 25.6)"/><path d="M4220 1832.64h352v156h-352z" stroke="#3a414a" stroke-width="2" fill="#edf5ff"/><path d="M4220 1870.24h352m-352 59.1h352" stroke="#3a414a" stroke-width="2" fill="none"/><use xlink:href="#v" transform="matrix(1,0,0,1,4228.0008273514895,1840.6379215751876) translate(125.6 14.6)"/><use xlink:href="#d" transform="matrix(1,0,0,1,4232.0008273514895,1937.3379215751875) translate(0 25.6)"/><use xlink:href="#q" transform="matrix(1,0,0,1,4232.0008273514895,1937.3379215751875) translate(15.5 25.6)"/><path d="M2012 1022.64h352v199h-352z" stroke="#3a414a" stroke-width="2" fill="#edf5ff"/><path d="M2012 1060.24h352m-352 59.1h352" stroke="#3a414a" stroke-width="2" fill="none"/><use xlink:href="#w" transform="matrix(1,0,0,1,2020.0008273514893,1030.6379215751876) translate(98.125 14.6)"/><use xlink:href="#d" transform="matrix(1,0,0,1,2024.0008273514893,1127.3379215751875) translate(0 25.5)"/><use xlink:href="#o" transform="matrix(1,0,0,1,2024.0008273514893,1127.3379215751875) translate(15.5 25.5)"/><use xlink:href="#d" transform="matrix(1,0,0,1,2024.0008273514893,1127.3379215751875) translate(0 47.1)"/><use xlink:href="#p" transform="matrix(1,0,0,1,2024.0008273514893,1127.3379215751875) translate(15.5 47.1)"/><use xlink:href="#d" transform="matrix(1,0,0,1,2024.0008273514893,1127.3379215751875) translate(0 68.7)"/><use xlink:href="#q" transform="matrix(1,0,0,1,2024.0008273514893,1127.3379215751875) translate(15.5 68.7)"/><path d="M3580 1022.64h352v199h-352z" stroke="#3a414a" stroke-width="2" fill="#edf5ff"/><path d="M3580 1060.24h352m-352 59.1h352" stroke="#3a414a" stroke-width="2" fill="none"/><use xlink:href="#x" transform="matrix(1,0,0,1,3588.0008273514895,1030.6379215751876) translate(113.57499999999999 14.6)"/><use xlink:href="#d" transform="matrix(1,0,0,1,3592.0008273514895,1127.3379215751875) translate(0 25.5)"/><use xlink:href="#o" transform="matrix(1,0,0,1,3592.0008273514895,1127.3379215751875) translate(15.5 25.5)"/><use xlink:href="#d" transform="matrix(1,0,0,1,3592.0008273514895,1127.3379215751875) translate(0 47.1)"/><use xlink:href="#p" transform="matrix(1,0,0,1,3592.0008273514895,1127.3379215751875) translate(15.5 47.1)"/><use xlink:href="#d" transform="matrix(1,0,0,1,3592.0008273514895,1127.3379215751875) translate(0 68.7)"/><use xlink:href="#q" transform="matrix(1,0,0,1,3592.0008273514895,1127.3379215751875) translate(15.5 68.7)"/><path d="M4596 212.64h352v221h-352z" stroke="#3a414a" stroke-width="2" fill="#edf5ff"/><path d="M4596 250.24h352m-352 123.9h352" stroke="#3a414a" stroke-width="2" fill="none"/><use xlink:href="#y" transform="matrix(1,0,0,1,4604.0008273514895,220.63792157518765) translate(88.60000000000001 14.6)"/><use xlink:href="#z" transform="matrix(1,0,0,1,4608.0008273514895,258.23792157518767) translate(0 25.19999999999999)"/><use xlink:href="#A" transform="matrix(1,0,0,1,4608.0008273514895,258.23792157518767) translate(0 46.79999999999999)"/><use xlink:href="#B" transform="matrix(1,0,0,1,4608.0008273514895,258.23792157518767) translate(0 68.39999999999999)"/><use xlink:href="#C" transform="matrix(1,0,0,1,4608.0008273514895,258.23792157518767) translate(0 90)"/><path d="M2012 1832.64h352v156h-352z" stroke="#3a414a" stroke-width="2" fill="#edf5ff"/><path d="M2012 1870.24h352m-352 59.1h352" stroke="#3a414a" stroke-width="2" fill="none"/><use xlink:href="#D" transform="matrix(1,0,0,1,2020.0008273514893,1840.6379215751876) translate(111.05 14.6)"/><use xlink:href="#d" transform="matrix(1,0,0,1,2024.0008273514893,1937.3379215751875) translate(0 25.6)"/><use xlink:href="#s" transform="matrix(1,0,0,1,2024.0008273514893,1937.3379215751875) translate(15.5 25.6)"/><path d="M3116 1832.64h352v156h-352z" stroke="#3a414a" stroke-width="2" fill="#edf5ff"/><path d="M3116 1870.24h352m-352 59.1h352" stroke="#3a414a" stroke-width="2" fill="none"/><use xlink:href="#E" transform="matrix(1,0,0,1,3124.0008273514895,1840.6379215751876) translate(126.5 14.6)"/><use xlink:href="#d" transform="matrix(1,0,0,1,3128.0008273514895,1937.3379215751875) translate(0 25.6)"/><use xlink:href="#s" transform="matrix(1,0,0,1,3128.0008273514895,1937.3379215751875) translate(15.5 25.6)"/><path d="M3668 1832.64h352v156h-352z" stroke="#3a414a" stroke-width="2" fill="#edf5ff"/><path d="M3668 1870.24h352m-352 59.1h352" stroke="#3a414a" stroke-width="2" fill="none"/><use xlink:href="#F" transform="matrix(1,0,0,1,3676.0008273514895,1840.6379215751876) translate(110.1 14.6)"/><use xlink:href="#d" transform="matrix(1,0,0,1,3680.0008273514895,1937.3379215751875) translate(0 25.6)"/><use xlink:href="#q" transform="matrix(1,0,0,1,3680.0008273514895,1937.3379215751875) translate(15.5 25.6)"/><path d="M2564 1832.64h352v156h-352z" stroke="#3a414a" stroke-width="2" fill="#edf5ff"/><path d="M2564 1870.24h352m-352 59.1h352" stroke="#3a414a" stroke-width="2" fill="none"/><use xlink:href="#G" transform="matrix(1,0,0,1,2572.0008273514895,1840.6379215751876) translate(130.025 14.6)"/><use xlink:href="#d" transform="matrix(1,0,0,1,2576.0008273514895,1937.3379215751875) translate(0 25.6)"/><use xlink:href="#u" transform="matrix(1,0,0,1,2576.0008273514895,1937.3379215751875) translate(15.5 25.6)"/><path d="M5265.8-499.27h-.94v-264.3h.95zm0-285.9h-.94v-264.7h.95z" stroke="#333" stroke-width=".05" fill="#333"/><path d="M5265.8-1049.85h-.94v-.5h.95z" fill="#333"/><path stroke="#333" stroke-width=".05" fill="#333"/><path d="M5265.33-500.28l9.78-16.52.82.48-10.6 17.9-10.58-17.9.82-.48z" stroke="#333" stroke-width=".05" fill="#333"/><use xlink:href="#H" transform="matrix(1,0,0,1,5219.384160684823,-785.1620784248123) translate(0 14.4)"/><path d="M5324.48-41.88v252.6h-.95V-41.83l-.1-1.22h.95zm-58.67-24l.1 1.22h-.95l-.1-1.18v-253.02h.96z" stroke="#333" stroke-width=".05" fill="#333"/><path d="M5265.8-318.85h-.94v-.5h.95z" fill="#333"/><path stroke="#333" stroke-width=".05" fill="#333"/><path d="M5334.6 193.68l-10.6 17.9-10.6-17.9.83-.48 9.77 16.52 9.77-16.52z" stroke="#333" stroke-width=".05" fill="#333"/><use xlink:href="#H" transform="matrix(1,0,0,1,5248.717494018157,-64.66207842481235) translate(0 14.4)"/><path d="M5412.48 707.62v313.1h-.95V707.67l-.1-1.22h.95zm-88-24l.1 1.22h-.96l-.1-1.18V370.14h.96z" stroke="#333" stroke-width=".05" fill="#333"/><path d="M5324.48 370.15h-.95v-.5h.95z" fill="#333"/><path stroke="#333" stroke-width=".05" fill="#333"/><path d="M5422.6 1003.68l-10.6 17.9-10.6-17.9.83-.48 9.77 16.52 9.77-16.52z" stroke="#333" stroke-width=".05" fill="#333"/><use xlink:href="#H" transform="matrix(1,0,0,1,5322.05082735149,684.8379215751877) translate(0 14.4)"/><path d="M2758.8 1122.6h-392.9v-.94h392.9zm997.68-12.44l-.16 1.93-.45 1.9-.75 1.8-1.03 1.67-1.28 1.5-1.5 1.26-1.66 1.03-1.8.74-1.9.46-1.94.15H2850.7v-.94h893.28l1.82-.14 1.76-.42 1.67-.7 1.54-.94 1.38-1.17 1.17-1.4.95-1.53.7-1.67.4-1.76.16-1.82V717.2h.95zM5146.5 291.1H3768.02l-1.82.16-1.76.42-1.67.7-1.54.94-1.38 1.17-1.17 1.37-.95 1.54-.7 1.68-.4 1.75-.15 1.83V695.6h-.95V302.6l.15-1.93.46-1.92.74-1.8 1.03-1.68 1.28-1.48 1.5-1.28 1.66-1.02 1.8-.75 1.9-.45 1.94-.16H5146.5z" stroke="#333" stroke-width=".05" fill="#333"/><path d="M5147 291.1h-.5v-.94h.5z" fill="#333"/><path stroke="#333" stroke-width=".05" fill="#333"/><path d="M2383.44 1112.37l-16.52 9.77 16.52 9.77-.48.83-17.9-10.6 17.9-10.58z" stroke="#333" stroke-width=".05" fill="#333"/><use xlink:href="#H" transform="matrix(1,0,0,1,3710.0508273514897,695.5879215751877) translate(0 14.4)"/><path d="M4414.8 1122.6h-480.9v-.94h480.9zm125.68-12.44l-.16 1.93-.45 1.9-.75 1.8-1.02 1.67-1.28 1.5-1.5 1.26-1.65 1.03-1.8.74-1.92.46-1.93.15h-21.32v-.94h21.28l1.82-.14 1.76-.42 1.67-.7 1.54-.94 1.38-1.17 1.17-1.4.95-1.53.7-1.67.4-1.76.16-1.82V717.2h.95zM5146.5 291.1h-594.48l-1.82.16-1.76.42-1.67.7-1.54.94-1.38 1.17-1.17 1.37-.95 1.54-.7 1.68-.4 1.75-.15 1.83V695.6h-.95V302.6l.15-1.93.45-1.92.75-1.8 1.03-1.68 1.28-1.48 1.5-1.28 1.66-1.02 1.8-.75 1.9-.45 1.94-.16h594.52z" stroke="#333" stroke-width=".05" fill="#333"/><path d="M5147 291.1h-.5v-.94h.5z" fill="#333"/><path stroke="#333" stroke-width=".05" fill="#333"/><path d="M3951.44 1112.37l-16.52 9.77 16.52 9.77-.48.83-17.9-10.6 17.9-10.58z" stroke="#333" stroke-width=".05" fill="#333"/><use xlink:href="#H" transform="matrix(1,0,0,1,4494.05082735149,695.5879215751877) translate(0 14.4)"/><path d="M5134.05 1527.6h-174.03l-1.82.16-1.76.42-1.67.7-1.54.93-1.38 1.2-1.17 1.37-.95 1.54-.7 1.68-.4 1.76-.15 1.82v291.57h-.95v-291.6l.15-1.94.45-1.92.75-1.8 1.03-1.68 1.28-1.48 1.5-1.28 1.66-1.02 1.8-.75 1.9-.45 1.94-.16h174.07zm276-5.08l-1.23 1.44-1.5 1.27-1.65 1.03-1.8.74-1.92.46-1.93.15h-174.07v-.94h174.03l1.82-.14 1.76-.42 1.67-.7 1.54-.94 1.38-1.17 1.17-1.4.73-1.18zm2.43-7.36l-.1 1.18h-.95l.1-1.22v-291.98h.95z" stroke="#333" stroke-width=".05" fill="#333"/><path d="M5412.48 1223.15h-.95v-.5h.95z" fill="#333"/><path stroke="#333" stroke-width=".05" fill="#333"/><path d="M4958.6 1813.68l-10.6 17.9-10.6-17.9.83-.48 9.77 16.52 9.77-16.52z" stroke="#333" stroke-width=".05" fill="#333"/><use xlink:href="#H" transform="matrix(1,0,0,1,5134.05082735149,1516.3379215751877) translate(0 14.4)"/><path d="M5500.48 1539.12v291.6h-.95v-291.56l-.1-1.22h.95zm-88-24l.1 1.22h-.96l-.1-1.18v-292.02h.96z" stroke="#333" stroke-width=".05" fill="#333"/><path d="M5412.48 1223.15h-.95v-.5h.95z" fill="#333"/><path stroke="#333" stroke-width=".05" fill="#333"/><path d="M5510.6 1813.68l-10.6 17.9-10.6-17.9.83-.48 9.77 16.52 9.77-16.52z" stroke="#333" stroke-width=".05" fill="#333"/><g><use xlink:href="#H" transform="matrix(1,0,0,1,5410.05082735149,1516.3379215751877) translate(0 14.4)"/></g><path d="M4414.8 1122.6h-6.78l-1.82.16-1.76.42-1.67.7-1.54.93-1.38 1.2-1.17 1.37-.95 1.54-.7 1.68-.4 1.76-.15 1.82v696.57h-.95v-696.6l.15-1.94.45-1.92.75-1.8 1.03-1.68 1.28-1.48 1.5-1.28 1.66-1.02 1.8-.75 1.9-.45 1.94-.16h6.82zm819.7 0h-727.8v-.94h727.8z" stroke="#333" stroke-width=".05" fill="#333"/><path d="M5235 1122.6h-.5v-.94h.5z" fill="#333"/><path stroke="#333" stroke-width=".05" fill="#333"/><path d="M4406.6 1813.68l-10.6 17.9-10.6-17.9.83-.48 9.77 16.52 9.77-16.52z" stroke="#333" stroke-width=".05" fill="#333"/><g><use xlink:href="#H" transform="matrix(1,0,0,1,4414.80082735149,1111.3379215751877) translate(0 14.4)"/></g><path d="M2188.48 1830.73h-.95v-292.8h.95zm0-314.4h-.95v-293.2h.95z" stroke="#333" stroke-width=".05" fill="#333"/><path d="M2188.48 1223.15h-.95v-.5h.95z" fill="#333"/><path stroke="#333" stroke-width=".05" fill="#333"/><path d="M2198.6 1813.68l-10.6 17.9-10.6-17.9.83-.48 9.77 16.52 9.77-16.52z" stroke="#333" stroke-width=".05" fill="#333"/><g><use xlink:href="#H" transform="matrix(1,0,0,1,2142.0508273514897,1516.3379215751877) translate(0 14.4)"/></g><path d="M3478.05 1527.6h-174.03l-1.82.16-1.76.42-1.67.7-1.54.93-1.38 1.2-1.17 1.37-.95 1.54-.7 1.68-.4 1.76-.15 1.82v291.57h-.95v-291.6l.15-1.94.46-1.92.74-1.8 1.03-1.68 1.28-1.48 1.5-1.28 1.66-1.02 1.8-.75 1.9-.45 1.94-.16h174.07zm276-5.08l-1.23 1.44-1.5 1.27-1.66 1.03-1.8.74-1.9.46-1.94.15h-174.07v-.94h174.03l1.82-.14 1.76-.42 1.67-.7 1.54-.94 1.38-1.17 1.17-1.4.73-1.18zm2.43-7.36l-.1 1.18h-.95l.1-1.22v-291.98h.95z" stroke="#333" stroke-width=".05" fill="#333"/><path d="M3756.48 1223.15h-.95v-.5h.95z" fill="#333"/><path stroke="#333" stroke-width=".05" fill="#333"/><path d="M3302.6 1813.68l-10.6 17.9-10.6-17.9.83-.48 9.77 16.52 9.77-16.52z" stroke="#333" stroke-width=".05" fill="#333"/><g><use xlink:href="#H" transform="matrix(1,0,0,1,3478.0508273514897,1516.3379215751877) translate(0 14.4)"/></g><path d="M3844.48 1539.12v291.6h-.95v-291.56l-.1-1.22h.95zm-88-24l.1 1.22h-.96l-.1-1.18v-292.02h.96z" stroke="#333" stroke-width=".05" fill="#333"/><path d="M3756.48 1223.15h-.95v-.5h.95z" fill="#333"/><path stroke="#333" stroke-width=".05" fill="#333"/><path d="M3854.6 1813.68l-10.6 17.9-10.6-17.9.83-.48 9.77 16.52 9.77-16.52z" stroke="#333" stroke-width=".05" fill="#333"/><g><use xlink:href="#H" transform="matrix(1,0,0,1,3754.0508273514897,1516.3379215751877) translate(0 14.4)"/></g><path d="M2758.8 1122.6h-6.78l-1.82.16-1.76.42-1.67.7-1.54.93-1.38 1.2-1.17 1.37-.95 1.54-.7 1.68-.4 1.76-.15 1.82v696.57h-.95v-696.6l.15-1.94.46-1.92.74-1.8 1.03-1.68 1.28-1.48 1.5-1.28 1.66-1.02 1.8-.75 1.9-.45 1.94-.16h6.82zm819.7 0h-727.8v-.94h727.8z" stroke="#333" stroke-width=".05" fill="#333"/><path d="M3579 1122.6h-.5v-.94h.5z" fill="#333"/><path stroke="#333" stroke-width=".05" fill="#333"/><path d="M2750.6 1813.68l-10.6 17.9-10.6-17.9.83-.48 9.77 16.52 9.77-16.52z" stroke="#333" stroke-width=".05" fill="#333"/><g><use xlink:href="#H" transform="matrix(1,0,0,1,2758.8008273514897,1111.3379215751877) translate(0 14.4)"/></g><path d="M4772.48 210.73h-.95v-4.95h.95zm0-9.9h-.95v-9.9h.95zm0-14.87h-.95v-9.9h.95zm0-14.85h-.95v-9.9h.95zm0-14.85h-.95v-9.9h.95zm0-14.86h-.95v-9.9h.95zm0-14.87h-.95v-9.9h.95zm0-14.86h-.95v-9.9h.95zm0-14.86l-.95.02v-9.9h.95zm0-14.84h-.95v-9.9h.95zm0-14.86h-.95v-9.9h.95zm0-14.86h-.95v-9.9h.95zm0-14.86h-.95v-9.9h.95zm0-14.86h-.95v-9.9h.95zm0-14.85h-.95v-9.9h.95zm0-14.86h-.95v-9.9h.95zm0-14.85h-.95v-9.9h.95zm1.56-25.55l-.3.5-.7 1.68-.42 1.76-.14 1.82v4.93h-.95v-4.98l.15-1.93.45-1.92.75-1.8.35-.57zm15-5.8h-5.02l-1.82.16-1.76.42-1.67.7-.5.3-.5-.8.57-.36 1.8-.75 1.9-.46 1.94-.14h5.07zm459.68 0h-.43v-.94h.42zm-5.48 0h-10.1v-.94h10.1zm-15.14 0H5218v-.94h10.1zm-15.14 0h-10.1v-.94h10.1zm-15.14 0h-10.1v-.94h10.1zm-15.14 0h-10.1v-.94h10.1zm-15.14 0h-10.1v-.94h10.1zm-15.14 0h-10.1v-.94h10.1zm-15.14 0h-10.1v-.94h10.1zm-15.14 0h-10.1v-.94h10.1zm-15.14 0h-10.1v-.94h10.1zm-15.14 0h-10.1v-.94h10.1zm-15.14 0h-10.1v-.94h10.1zm-15.14 0h-10.1v-.94h10.1zm-61.9 0h-8.75v-.94h8.77zm-13.8 0h-10.1v-.94h10.1zm-15.13 0h-10.1v-.94h10.1zm-15.14 0h-10.1v-.94h10.1zm-15.16 0h-10.1v-.94h10.1zm-15.13 0h-10.1v-.94h10.1zm-15.13 0h-10.1v-.94h10.1zm-15.14 0h-10.1v-.94h10.1zm-15.14 0h-10.1v-.94h10.1zm-15.15 0h-10.1v-.94h10.1zm-15.14 0h-10.1v-.94h10.1zm-15.13 0h-10.1v-.94h10.1zm-15.14 0h-10.1v-.94h10.1zm-15.14 0h-10.1v-.94h10.1zm242.22 0h-8.75v-.94h8.75zm219.4-12.44l-.1 1.18h-.96l.1-1.22v-4.94h.95zm0-9.94h-.96v-9.92h.95zm0-14.9h-.96v-9.9h.95zm0-14.87h-.96v-9.92h.95zm0-14.88h-.96v-9.92h.95zm0-14.88h-.96v-9.94h.95zm0-14.9h-.96v-9.92h.95zm0-14.88h-.96V-175h.95zm0-14.88h-.96v-9.92h.95zm0-14.88h-.96v-9.92h.95zm0-14.88h-.96v-9.93h.95zm0-14.9h-.96v-9.9h.95zm0-14.87h-.96v-9.9h.95zm0-14.87h-.96v-9.92h.95zm0-14.88h-.96v-9.93h.95zm0-14.9h-.96v-9.9h.95zm0-14.87h-.96v-9.92h.95zm0-14.88h-.96v-4.96h.95z" stroke="#333" stroke-width=".05" fill="#333"/><path d="M5265.8-318.85h-.94v-.5h.95z" fill="#333"/><path stroke="#333" stroke-width=".05" fill="#333"/><path d="M4782.6 193.68l-10.6 17.9-10.6-17.9.83-.48 9.77 16.52 9.77-16.52z" stroke="#333" stroke-width=".05" fill="#333"/><g><use xlink:href="#I" transform="matrix(1,0,0,1,4999.6674940181565,-64.66207842481235) translate(0 14.4)"/></g><defs><path fill="#3a414a" d="M156-25L96-89v-11l60-65h29v5l-59 66 60 64v5h-30zm-82 0L15-89v-11l59-65h29v5L44-94l59 64v5H74" id="J"/><path fill="#3a414a" d="M100-194c63 0 86 42 84 106H49c0 40 14 67 53 68 26 1 43-12 49-29l28 8c-11 28-37 45-77 45C44 4 14-33 15-96c1-61 26-98 85-98zm52 81c6-60-76-77-97-28-3 7-6 17-6 28h103" id="K"/><path fill="#3a414a" d="M117-194c89-4 53 116 60 194h-32v-121c0-31-8-49-39-48C34-167 62-67 57 0H25l-1-190h30c1 10-1 24 2 32 11-22 29-35 61-36" id="L"/><path fill="#3a414a" d="M84 4C-5 8 30-112 23-190h32v120c0 31 7 50 39 49 72-2 45-101 50-169h31l1 190h-30c-1-10 1-25-2-33-11 22-28 36-60 37" id="M"/><path fill="#3a414a" d="M210-169c-67 3-38 105-44 169h-31v-121c0-29-5-50-35-48C34-165 62-65 56 0H25l-1-190h30c1 10-1 24 2 32 10-44 99-50 107 0 11-21 27-35 58-36 85-2 47 119 55 194h-31v-121c0-29-5-49-35-48" id="N"/><path fill="#3a414a" d="M114-163C36-179 61-72 57 0H25l-1-190h30c1 12-1 29 2 39 6-27 23-49 58-41v29" id="O"/><path fill="#3a414a" d="M141-36C126-15 110 5 73 4 37 3 15-17 15-53c-1-64 63-63 125-63 3-35-9-54-41-54-24 1-41 7-42 31l-33-3c5-37 33-52 76-52 45 0 72 20 72 64v82c-1 20 7 32 28 27v20c-31 9-61-2-59-35zM48-53c0 20 12 33 32 33 41-3 63-29 60-74-43 2-92-5-92 41" id="P"/><path fill="#3a414a" d="M59-47c-2 24 18 29 38 22v24C64 9 27 4 27-40v-127H5v-23h24l9-43h21v43h35v23H59v120" id="Q"/><path fill="#3a414a" d="M24-231v-30h32v30H24zM24 0v-190h32V0H24" id="R"/><path fill="#3a414a" d="M100-194c62-1 85 37 85 99 1 63-27 99-86 99S16-35 15-95c0-66 28-99 85-99zM99-20c44 1 53-31 53-75 0-43-8-75-51-75s-53 32-53 75 10 74 51 75" id="S"/><path fill="#3a414a" d="M126-25H97v-5l59-64-59-66v-5h29l60 65v11zm-82 0H15v-5l59-64-59-66v-5h29l59 65v11" id="T"/><g id="a"><use transform="matrix(0.06172839506172839,0,0,0.06172839506172839,0,0)" xlink:href="#J"/><use transform="matrix(0.06172839506172839,0,0,0.06172839506172839,12.345679012345679,0)" xlink:href="#K"/><use transform="matrix(0.06172839506172839,0,0,0.06172839506172839,24.691358024691358,0)" xlink:href="#L"/><use transform="matrix(0.06172839506172839,0,0,0.06172839506172839,37.03703703703704,0)" xlink:href="#M"/><use transform="matrix(0.06172839506172839,0,0,0.06172839506172839,49.382716049382715,0)" xlink:href="#N"/><use transform="matrix(0.06172839506172839,0,0,0.06172839506172839,67.8395061728395,0)" xlink:href="#K"/><use transform="matrix(0.06172839506172839,0,0,0.06172839506172839,80.18518518518519,0)" xlink:href="#O"/><use transform="matrix(0.06172839506172839,0,0,0.06172839506172839,87.53086419753087,0)" xlink:href="#P"/><use transform="matrix(0.06172839506172839,0,0,0.06172839506172839,99.87654320987656,0)" xlink:href="#Q"/><use transform="matrix(0.06172839506172839,0,0,0.06172839506172839,106.0493827160494,0)" xlink:href="#R"/><use transform="matrix(0.06172839506172839,0,0,0.06172839506172839,110.92592592592594,0)" xlink:href="#S"/><use transform="matrix(0.06172839506172839,0,0,0.06172839506172839,123.27160493827162,0)" xlink:href="#L"/><use transform="matrix(0.06172839506172839,0,0,0.06172839506172839,135.6172839506173,0)" xlink:href="#T"/></g><path fill="#3a414a" d="M205 0l-28-72H64L36 0H1l101-248h38L239 0h-34zm-38-99l-47-123c-12 45-31 82-46 123h93" id="U"/><path fill="#3a414a" d="M96-169c-40 0-48 33-48 73s9 75 48 75c24 0 41-14 43-38l32 2c-6 37-31 61-74 61-59 0-76-41-82-99-10-93 101-131 147-64 4 7 5 14 7 22l-32 3c-4-21-16-35-41-35" id="V"/><path fill="#3a414a" d="M185-189c-5-48-123-54-124 2 14 75 158 14 163 119 3 78-121 87-175 55-17-10-28-26-33-46l33-7c5 56 141 63 141-1 0-78-155-14-162-118-5-82 145-84 179-34 5 7 8 16 11 25" id="W"/><g id="b"><use transform="matrix(0.06172839506172839,0,0,0.06172839506172839,0,0)" xlink:href="#U"/><use transform="matrix(0.06172839506172839,0,0,0.06172839506172839,14.814814814814813,0)" xlink:href="#V"/><use transform="matrix(0.06172839506172839,0,0,0.06172839506172839,25.925925925925924,0)" xlink:href="#V"/><use transform="matrix(0.06172839506172839,0,0,0.06172839506172839,37.03703703703704,0)" xlink:href="#S"/><use transform="matrix(0.06172839506172839,0,0,0.06172839506172839,49.382716049382715,0)" xlink:href="#M"/><use transform="matrix(0.06172839506172839,0,0,0.06172839506172839,61.72839506172839,0)" xlink:href="#L"/><use transform="matrix(0.06172839506172839,0,0,0.06172839506172839,74.07407407407408,0)" xlink:href="#Q"/><use transform="matrix(0.06172839506172839,0,0,0.06172839506172839,80.24691358024691,0)" xlink:href="#W"/><use transform="matrix(0.06172839506172839,0,0,0.06172839506172839,95.06172839506172,0)" xlink:href="#Q"/><use transform="matrix(0.06172839506172839,0,0,0.06172839506172839,101.23456790123456,0)" xlink:href="#P"/><use transform="matrix(0.06172839506172839,0,0,0.06172839506172839,113.58024691358024,0)" xlink:href="#Q"/><use transform="matrix(0.06172839506172839,0,0,0.06172839506172839,119.75308641975307,0)" xlink:href="#K"/></g><path d="M212-179c-10-28-35-45-73-45-59 0-87 40-87 99 0 60 29 101 89 101 43 0 62-24 78-52l27 14C228-24 195 4 139 4 59 4 22-46 18-125c-6-104 99-153 187-111 19 9 31 26 39 46" id="X"/><path d="M24 0v-261h32V0H24" id="Y"/><path d="M24-231v-30h32v30H24zM24 0v-190h32V0H24" id="Z"/><path d="M100-194c63 0 86 42 84 106H49c0 40 14 67 53 68 26 1 43-12 49-29l28 8c-11 28-37 45-77 45C44 4 14-33 15-96c1-61 26-98 85-98zm52 81c6-60-76-77-97-28-3 7-6 17-6 28h103" id="aa"/><path d="M117-194c89-4 53 116 60 194h-32v-121c0-31-8-49-39-48C34-167 62-67 57 0H25l-1-190h30c1 10-1 24 2 32 11-22 29-35 61-36" id="ab"/><path d="M59-47c-2 24 18 29 38 22v24C64 9 27 4 27-40v-127H5v-23h24l9-43h21v43h35v23H59v120" id="ac"/><g id="c"><use transform="matrix(0.05,0,0,0.05,0,0)" xlink:href="#X"/><use transform="matrix(0.05,0,0,0.05,12.950000000000001,0)" xlink:href="#Y"/><use transform="matrix(0.05,0,0,0.05,16.900000000000002,0)" xlink:href="#Z"/><use transform="matrix(0.05,0,0,0.05,20.85,0)" xlink:href="#aa"/><use transform="matrix(0.05,0,0,0.05,30.85,0)" xlink:href="#ab"/><use transform="matrix(0.05,0,0,0.05,40.85,0)" xlink:href="#ac"/></g><path d="M118-107v75H92v-75H18v-26h74v-75h26v75h74v26h-74" id="ad"/><use transform="matrix(0.05,0,0,0.05,0,0)" xlink:href="#ad" id="d"/><path d="M210-169c-67 3-38 105-44 169h-31v-121c0-29-5-50-35-48C34-165 62-65 56 0H25l-1-190h30c1 10-1 24 2 32 10-44 99-50 107 0 11-21 27-35 58-36 85-2 47 119 55 194h-31v-121c0-29-5-49-35-48" id="ae"/><path d="M141-36C126-15 110 5 73 4 37 3 15-17 15-53c-1-64 63-63 125-63 3-35-9-54-41-54-24 1-41 7-42 31l-33-3c5-37 33-52 76-52 45 0 72 20 72 64v82c-1 20 7 32 28 27v20c-31 9-61-2-59-35zM48-53c0 20 12 33 32 33 41-3 63-29 60-74-43 2-92-5-92 41" id="af"/><path d="M87 75C49 33 22-17 22-94c0-76 28-126 65-167h31c-38 41-64 92-64 168S80 34 118 75H87" id="ag"/><path d="M185-189c-5-48-123-54-124 2 14 75 158 14 163 119 3 78-121 87-175 55-17-10-28-26-33-46l33-7c5 56 141 63 141-1 0-78-155-14-162-118-5-82 145-84 179-34 5 7 8 16 11 25" id="ah"/><path d="M114-163C36-179 61-72 57 0H25l-1-190h30c1 12-1 29 2 39 6-27 23-49 58-41v29" id="ai"/><path d="M177-190C167-65 218 103 67 71c-23-6-38-20-44-43l32-5c15 47 100 32 89-28v-30C133-14 115 1 83 1 29 1 15-40 15-95c0-56 16-97 71-98 29-1 48 16 59 35 1-10 0-23 2-32h30zM94-22c36 0 50-32 50-73 0-42-14-75-50-75-39 0-46 34-46 75s6 73 46 73" id="aj"/><g id="e"><use transform="matrix(0.05,0,0,0.05,0,0)" xlink:href="#ae"/><use transform="matrix(0.05,0,0,0.05,14.950000000000001,0)" xlink:href="#af"/><use transform="matrix(0.05,0,0,0.05,24.950000000000003,0)" xlink:href="#Z"/><use transform="matrix(0.05,0,0,0.05,28.900000000000002,0)" xlink:href="#ab"/><use transform="matrix(0.05,0,0,0.05,38.900000000000006,0)" xlink:href="#ag"/><use transform="matrix(0.05,0,0,0.05,44.85000000000001,0)" xlink:href="#ah"/><use transform="matrix(0.05,0,0,0.05,56.85,0)" xlink:href="#ac"/><use transform="matrix(0.05,0,0,0.05,61.85,0)" xlink:href="#ai"/><use transform="matrix(0.05,0,0,0.05,67.80000000000001,0)" xlink:href="#Z"/><use transform="matrix(0.05,0,0,0.05,71.75000000000001,0)" xlink:href="#ab"/><use transform="matrix(0.05,0,0,0.05,81.75000000000001,0)" xlink:href="#aj"/></g><path d="M135-143c-3-34-86-38-87 0 15 53 115 12 119 90S17 21 10-45l28-5c4 36 97 45 98 0-10-56-113-15-118-90-4-57 82-63 122-42 12 7 21 19 24 35" id="ak"/><path d="M33-261c38 41 65 92 65 168S71 34 33 75H2C39 34 66-17 66-93S39-220 2-261h31" id="al"/><g id="f"><use transform="matrix(0.05,0,0,0.05,0,0)" xlink:href="#af"/><use transform="matrix(0.05,0,0,0.05,10,0)" xlink:href="#ai"/><use transform="matrix(0.05,0,0,0.05,15.949999999999998,0)" xlink:href="#aj"/><use transform="matrix(0.05,0,0,0.05,25.950000000000003,0)" xlink:href="#ak"/><use transform="matrix(0.05,0,0,0.05,34.95,0)" xlink:href="#al"/></g><path d="M63-220v92h138v28H63V0H30v-248h175v28H63" id="am"/><path d="M84 4C-5 8 30-112 23-190h32v120c0 31 7 50 39 49 72-2 45-101 50-169h31l1 190h-30c-1-10 1-25-2-33-11 22-28 36-60 37" id="an"/><g id="g"><use transform="matrix(0.05,0,0,0.05,0,0)" xlink:href="#am"/><use transform="matrix(0.05,0,0,0.05,10.950000000000001,0)" xlink:href="#Y"/><use transform="matrix(0.05,0,0,0.05,14.9,0)" xlink:href="#an"/><use transform="matrix(0.05,0,0,0.05,24.900000000000002,0)" xlink:href="#ac"/><use transform="matrix(0.05,0,0,0.05,29.900000000000002,0)" xlink:href="#ac"/><use transform="matrix(0.05,0,0,0.05,34.900000000000006,0)" xlink:href="#aa"/><use transform="matrix(0.05,0,0,0.05,44.900000000000006,0)" xlink:href="#ai"/></g><path d="M16-82v-28h88v28H16" id="ao"/><use transform="matrix(0.05,0,0,0.05,0,0)" xlink:href="#ao" id="h"/><path d="M115-194c55 1 70 41 70 98S169 2 115 4C84 4 66-9 55-30l1 105H24l-1-265h31l2 30c10-21 28-34 59-34zm-8 174c40 0 45-34 45-75s-6-73-45-74c-42 0-51 32-51 76 0 43 10 73 51 73" id="ap"/><path d="M100-194c62-1 85 37 85 99 1 63-27 99-86 99S16-35 15-95c0-66 28-99 85-99zM99-20c44 1 53-31 53-75 0-43-8-75-51-75s-53 32-53 75 10 74 51 75" id="aq"/><path d="M85-194c31 0 48 13 60 33l-1-100h32l1 261h-30c-2-10 0-23-3-31C134-8 116 4 85 4 32 4 16-35 15-94c0-66 23-100 70-100zm9 24c-40 0-46 34-46 75 0 40 6 74 45 74 42 0 51-32 51-76 0-42-9-74-50-73" id="ar"/><path d="M30-248c87 1 191-15 191 75 0 78-77 80-158 76V0H30v-248zm33 125c57 0 124 11 124-50 0-59-68-47-124-48v98" id="as"/><path d="M101-234c-31-9-42 10-38 44h38v23H63V0H32v-167H5v-23h27c-7-52 17-82 69-68v24" id="at"/><g id="i"><use transform="matrix(0.05,0,0,0.05,0,0)" xlink:href="#ah"/><use transform="matrix(0.05,0,0,0.05,12,0)" xlink:href="#an"/><use transform="matrix(0.05,0,0,0.05,22,0)" xlink:href="#ap"/><use transform="matrix(0.05,0,0,0.05,32,0)" xlink:href="#ap"/><use transform="matrix(0.05,0,0,0.05,42,0)" xlink:href="#aq"/><use transform="matrix(0.05,0,0,0.05,52,0)" xlink:href="#ai"/><use transform="matrix(0.05,0,0,0.05,57.95,0)" xlink:href="#ac"/><use transform="matrix(0.05,0,0,0.05,62.95,0)" xlink:href="#aa"/><use transform="matrix(0.05,0,0,0.05,72.95,0)" xlink:href="#ar"/><use transform="matrix(0.05,0,0,0.05,82.95,0)" xlink:href="#as"/><use transform="matrix(0.05,0,0,0.05,94.95,0)" xlink:href="#Y"/><use transform="matrix(0.05,0,0,0.05,98.9,0)" xlink:href="#af"/><use transform="matrix(0.05,0,0,0.05,108.9,0)" xlink:href="#ac"/><use transform="matrix(0.05,0,0,0.05,113.9,0)" xlink:href="#at"/><use transform="matrix(0.05,0,0,0.05,118.9,0)" xlink:href="#aq"/><use transform="matrix(0.05,0,0,0.05,128.9,0)" xlink:href="#ai"/><use transform="matrix(0.05,0,0,0.05,134.85,0)" xlink:href="#ae"/><use transform="matrix(0.05,0,0,0.05,149.79999999999998,0)" xlink:href="#ak"/></g><g id="j"><use transform="matrix(0.05,0,0,0.05,0,0)" xlink:href="#ak"/><use transform="matrix(0.05,0,0,0.05,9,0)" xlink:href="#an"/><use transform="matrix(0.05,0,0,0.05,19,0)" xlink:href="#ap"/><use transform="matrix(0.05,0,0,0.05,29,0)" xlink:href="#ap"/><use transform="matrix(0.05,0,0,0.05,39,0)" xlink:href="#aq"/><use transform="matrix(0.05,0,0,0.05,49,0)" xlink:href="#ai"/><use transform="matrix(0.05,0,0,0.05,54.95,0)" xlink:href="#ac"/><use transform="matrix(0.05,0,0,0.05,59.95,0)" xlink:href="#aa"/><use transform="matrix(0.05,0,0,0.05,69.95,0)" xlink:href="#ar"/><use transform="matrix(0.05,0,0,0.05,79.95,0)" xlink:href="#as"/><use transform="matrix(0.05,0,0,0.05,91.95,0)" xlink:href="#Y"/><use transform="matrix(0.05,0,0,0.05,95.9,0)" xlink:href="#af"/><use transform="matrix(0.05,0,0,0.05,105.9,0)" xlink:href="#ac"/><use transform="matrix(0.05,0,0,0.05,110.9,0)" xlink:href="#at"/><use transform="matrix(0.05,0,0,0.05,115.9,0)" xlink:href="#aq"/><use transform="matrix(0.05,0,0,0.05,125.9,0)" xlink:href="#ai"/><use transform="matrix(0.05,0,0,0.05,131.85,0)" xlink:href="#ae"/><use transform="matrix(0.05,0,0,0.05,146.79999999999998,0)" xlink:href="#ak"/></g><path d="M96-169c-40 0-48 33-48 73s9 75 48 75c24 0 41-14 43-38l32 2c-6 37-31 61-74 61-59 0-76-41-82-99-10-93 101-131 147-64 4 7 5 14 7 22l-32 3c-4-21-16-35-41-35" id="au"/><path d="M179-190L93 31C79 59 56 82 12 73V49c39 6 53-20 64-50L1-190h34L92-34l54-156h33" id="av"/><g id="k"><use transform="matrix(0.05,0,0,0.05,0,0)" xlink:href="#au"/><use transform="matrix(0.05,0,0,0.05,9,0)" xlink:href="#ai"/><use transform="matrix(0.05,0,0,0.05,14.949999999999998,0)" xlink:href="#aa"/><use transform="matrix(0.05,0,0,0.05,24.95,0)" xlink:href="#af"/><use transform="matrix(0.05,0,0,0.05,34.95,0)" xlink:href="#ac"/><use transform="matrix(0.05,0,0,0.05,39.95,0)" xlink:href="#aa"/><use transform="matrix(0.05,0,0,0.05,49.95,0)" xlink:href="#am"/><use transform="matrix(0.05,0,0,0.05,60.900000000000006,0)" xlink:href="#af"/><use transform="matrix(0.05,0,0,0.05,70.9,0)" xlink:href="#au"/><use transform="matrix(0.05,0,0,0.05,79.9,0)" xlink:href="#ac"/><use transform="matrix(0.05,0,0,0.05,84.9,0)" xlink:href="#aq"/><use transform="matrix(0.05,0,0,0.05,94.9,0)" xlink:href="#ai"/><use transform="matrix(0.05,0,0,0.05,100.85000000000001,0)" xlink:href="#av"/><use transform="matrix(0.05,0,0,0.05,109.85000000000001,0)" xlink:href="#ag"/><use transform="matrix(0.05,0,0,0.05,115.80000000000001,0)" xlink:href="#al"/></g><path d="M232-93c-1 65-40 97-104 97C67 4 28-28 28-90v-158h33c8 89-33 224 67 224 102 0 64-133 71-224h33v155" id="aw"/><path d="M33 0v-248h34V0H33" id="ax"/><g id="l"><use transform="matrix(0.05,0,0,0.05,0,0)" xlink:href="#aw"/><use transform="matrix(0.05,0,0,0.05,12.950000000000001,0)" xlink:href="#ax"/><use transform="matrix(0.05,0,0,0.05,17.950000000000003,0)" xlink:href="#am"/><use transform="matrix(0.05,0,0,0.05,28.900000000000006,0)" xlink:href="#af"/><use transform="matrix(0.05,0,0,0.05,38.900000000000006,0)" xlink:href="#au"/><use transform="matrix(0.05,0,0,0.05,47.900000000000006,0)" xlink:href="#ac"/><use transform="matrix(0.05,0,0,0.05,52.900000000000006,0)" xlink:href="#aq"/><use transform="matrix(0.05,0,0,0.05,62.900000000000006,0)" xlink:href="#ai"/><use transform="matrix(0.05,0,0,0.05,68.85000000000001,0)" xlink:href="#av"/><use transform="matrix(0.05,0,0,0.05,77.85000000000001,0)" xlink:href="#am"/><use transform="matrix(0.05,0,0,0.05,88.80000000000001,0)" xlink:href="#af"/><use transform="matrix(0.05,0,0,0.05,98.80000000000001,0)" xlink:href="#au"/><use transform="matrix(0.05,0,0,0.05,107.80000000000001,0)" xlink:href="#ac"/><use transform="matrix(0.05,0,0,0.05,112.80000000000001,0)" xlink:href="#aq"/><use transform="matrix(0.05,0,0,0.05,122.80000000000001,0)" xlink:href="#ai"/><use transform="matrix(0.05,0,0,0.05,128.75,0)" xlink:href="#av"/></g><g id="m"><use transform="matrix(0.05,0,0,0.05,0,0)" xlink:href="#aj"/><use transform="matrix(0.05,0,0,0.05,10,0)" xlink:href="#aa"/><use transform="matrix(0.05,0,0,0.05,20,0)" xlink:href="#ac"/><use transform="matrix(0.05,0,0,0.05,25,0)" xlink:href="#aw"/><use transform="matrix(0.05,0,0,0.05,37.95,0)" xlink:href="#ax"/><use transform="matrix(0.05,0,0,0.05,42.95,0)" xlink:href="#am"/><use transform="matrix(0.05,0,0,0.05,53.900000000000006,0)" xlink:href="#af"/><use transform="matrix(0.05,0,0,0.05,63.900000000000006,0)" xlink:href="#au"/><use transform="matrix(0.05,0,0,0.05,72.9,0)" xlink:href="#ac"/><use transform="matrix(0.05,0,0,0.05,77.9,0)" xlink:href="#aq"/><use transform="matrix(0.05,0,0,0.05,87.9,0)" xlink:href="#ai"/><use transform="matrix(0.05,0,0,0.05,93.85000000000001,0)" xlink:href="#av"/><use transform="matrix(0.05,0,0,0.05,102.85000000000001,0)" xlink:href="#ag"/><use transform="matrix(0.05,0,0,0.05,108.80000000000001,0)" xlink:href="#ap"/><use transform="matrix(0.05,0,0,0.05,118.80000000000001,0)" xlink:href="#Y"/><use transform="matrix(0.05,0,0,0.05,122.75,0)" xlink:href="#af"/><use transform="matrix(0.05,0,0,0.05,132.75,0)" xlink:href="#ac"/><use transform="matrix(0.05,0,0,0.05,137.75,0)" xlink:href="#at"/><use transform="matrix(0.05,0,0,0.05,142.75,0)" xlink:href="#aq"/><use transform="matrix(0.05,0,0,0.05,152.75,0)" xlink:href="#ai"/><use transform="matrix(0.05,0,0,0.05,158.7,0)" xlink:href="#ae"/><use transform="matrix(0.05,0,0,0.05,173.64999999999998,0)" xlink:href="#al"/></g><g id="n"><use transform="matrix(0.05,0,0,0.05,0,0)" xlink:href="#aw"/><use transform="matrix(0.05,0,0,0.05,12.950000000000001,0)" xlink:href="#ax"/><use transform="matrix(0.05,0,0,0.05,17.950000000000003,0)" xlink:href="#am"/><use transform="matrix(0.05,0,0,0.05,28.900000000000006,0)" xlink:href="#af"/><use transform="matrix(0.05,0,0,0.05,38.900000000000006,0)" xlink:href="#au"/><use transform="matrix(0.05,0,0,0.05,47.900000000000006,0)" xlink:href="#ac"/><use transform="matrix(0.05,0,0,0.05,52.900000000000006,0)" xlink:href="#aq"/><use transform="matrix(0.05,0,0,0.05,62.900000000000006,0)" xlink:href="#ai"/><use transform="matrix(0.05,0,0,0.05,68.85000000000001,0)" xlink:href="#av"/></g><path d="M160-131c35 5 61 23 61 61C221 17 115-2 30 0v-248c76 3 177-17 177 60 0 33-19 50-47 57zm-97-11c50-1 110 9 110-42 0-47-63-36-110-37v79zm0 115c55-2 124 14 124-45 0-56-70-42-124-44v89" id="ay"/><g id="o"><use transform="matrix(0.05,0,0,0.05,0,0)" xlink:href="#au"/><use transform="matrix(0.05,0,0,0.05,9,0)" xlink:href="#ai"/><use transform="matrix(0.05,0,0,0.05,14.949999999999998,0)" xlink:href="#aa"/><use transform="matrix(0.05,0,0,0.05,24.95,0)" xlink:href="#af"/><use transform="matrix(0.05,0,0,0.05,34.95,0)" xlink:href="#ac"/><use transform="matrix(0.05,0,0,0.05,39.95,0)" xlink:href="#aa"/><use transform="matrix(0.05,0,0,0.05,49.95,0)" xlink:href="#ay"/><use transform="matrix(0.05,0,0,0.05,61.95,0)" xlink:href="#an"/><use transform="matrix(0.05,0,0,0.05,71.95,0)" xlink:href="#ac"/><use transform="matrix(0.05,0,0,0.05,76.95,0)" xlink:href="#ac"/><use transform="matrix(0.05,0,0,0.05,81.95,0)" xlink:href="#aq"/><use transform="matrix(0.05,0,0,0.05,91.95,0)" xlink:href="#ab"/><use transform="matrix(0.05,0,0,0.05,101.95,0)" xlink:href="#ag"/><use transform="matrix(0.05,0,0,0.05,107.9,0)" xlink:href="#al"/></g><path d="M240 0l2-218c-23 76-54 145-80 218h-23L58-218 59 0H30v-248h44l77 211c21-75 51-140 76-211h43V0h-30" id="az"/><g id="p"><use transform="matrix(0.05,0,0,0.05,0,0)" xlink:href="#au"/><use transform="matrix(0.05,0,0,0.05,9,0)" xlink:href="#ai"/><use transform="matrix(0.05,0,0,0.05,14.949999999999998,0)" xlink:href="#aa"/><use transform="matrix(0.05,0,0,0.05,24.95,0)" xlink:href="#af"/><use transform="matrix(0.05,0,0,0.05,34.95,0)" xlink:href="#ac"/><use transform="matrix(0.05,0,0,0.05,39.95,0)" xlink:href="#aa"/><use transform="matrix(0.05,0,0,0.05,49.95,0)" xlink:href="#az"/><use transform="matrix(0.05,0,0,0.05,64.9,0)" xlink:href="#aa"/><use transform="matrix(0.05,0,0,0.05,74.9,0)" xlink:href="#ab"/><use transform="matrix(0.05,0,0,0.05,84.9,0)" xlink:href="#an"/><use transform="matrix(0.05,0,0,0.05,94.9,0)" xlink:href="#ag"/><use transform="matrix(0.05,0,0,0.05,100.85000000000001,0)" xlink:href="#al"/></g><path d="M30-248c118-7 216 8 213 122C240-48 200 0 122 0H30v-248zM63-27c89 8 146-16 146-99s-60-101-146-95v194" id="aA"/><path d="M206 0h-36l-40-164L89 0H53L-1-190h32L70-26l43-164h34l41 164 42-164h31" id="aB"/><g id="q"><use transform="matrix(0.05,0,0,0.05,0,0)" xlink:href="#au"/><use transform="matrix(0.05,0,0,0.05,9,0)" xlink:href="#ai"/><use transform="matrix(0.05,0,0,0.05,14.949999999999998,0)" xlink:href="#aa"/><use transform="matrix(0.05,0,0,0.05,24.95,0)" xlink:href="#af"/><use transform="matrix(0.05,0,0,0.05,34.95,0)" xlink:href="#ac"/><use transform="matrix(0.05,0,0,0.05,39.95,0)" xlink:href="#aa"/><use transform="matrix(0.05,0,0,0.05,49.95,0)" xlink:href="#aA"/><use transform="matrix(0.05,0,0,0.05,62.900000000000006,0)" xlink:href="#ai"/><use transform="matrix(0.05,0,0,0.05,68.85000000000001,0)" xlink:href="#aq"/><use transform="matrix(0.05,0,0,0.05,78.85000000000001,0)" xlink:href="#ap"/><use transform="matrix(0.05,0,0,0.05,88.85000000000001,0)" xlink:href="#aA"/><use transform="matrix(0.05,0,0,0.05,101.80000000000001,0)" xlink:href="#aq"/><use transform="matrix(0.05,0,0,0.05,111.80000000000001,0)" xlink:href="#aB"/><use transform="matrix(0.05,0,0,0.05,124.75,0)" xlink:href="#ab"/><use transform="matrix(0.05,0,0,0.05,134.75,0)" xlink:href="#ag"/><use transform="matrix(0.05,0,0,0.05,140.7,0)" xlink:href="#al"/></g><g id="r"><use transform="matrix(0.05,0,0,0.05,0,0)" xlink:href="#ay"/><use transform="matrix(0.05,0,0,0.05,12,0)" xlink:href="#an"/><use transform="matrix(0.05,0,0,0.05,22,0)" xlink:href="#ac"/><use transform="matrix(0.05,0,0,0.05,27,0)" xlink:href="#ac"/><use transform="matrix(0.05,0,0,0.05,32,0)" xlink:href="#aq"/><use transform="matrix(0.05,0,0,0.05,42,0)" xlink:href="#ab"/></g><g id="s"><use transform="matrix(0.05,0,0,0.05,0,0)" xlink:href="#au"/><use transform="matrix(0.05,0,0,0.05,9,0)" xlink:href="#ai"/><use transform="matrix(0.05,0,0,0.05,14.949999999999998,0)" xlink:href="#aa"/><use transform="matrix(0.05,0,0,0.05,24.95,0)" xlink:href="#af"/><use transform="matrix(0.05,0,0,0.05,34.95,0)" xlink:href="#ac"/><use transform="matrix(0.05,0,0,0.05,39.95,0)" xlink:href="#aa"/><use transform="matrix(0.05,0,0,0.05,49.95,0)" xlink:href="#ay"/><use transform="matrix(0.05,0,0,0.05,61.95,0)" xlink:href="#an"/><use transform="matrix(0.05,0,0,0.05,71.95,0)" xlink:href="#ac"/><use transform="matrix(0.05,0,0,0.05,76.95,0)" xlink:href="#ac"/><use transform="matrix(0.05,0,0,0.05,81.95,0)" xlink:href="#aq"/><use transform="matrix(0.05,0,0,0.05,91.95,0)" xlink:href="#ab"/><use transform="matrix(0.05,0,0,0.05,101.95,0)" xlink:href="#ag"/><use transform="matrix(0.05,0,0,0.05,107.9,0)" xlink:href="#al"/></g><g id="t"><use transform="matrix(0.05,0,0,0.05,0,0)" xlink:href="#az"/><use transform="matrix(0.05,0,0,0.05,14.950000000000001,0)" xlink:href="#aa"/><use transform="matrix(0.05,0,0,0.05,24.950000000000003,0)" xlink:href="#ab"/><use transform="matrix(0.05,0,0,0.05,34.95,0)" xlink:href="#an"/></g><g id="u"><use transform="matrix(0.05,0,0,0.05,0,0)" xlink:href="#au"/><use transform="matrix(0.05,0,0,0.05,9,0)" xlink:href="#ai"/><use transform="matrix(0.05,0,0,0.05,14.949999999999998,0)" xlink:href="#aa"/><use transform="matrix(0.05,0,0,0.05,24.95,0)" xlink:href="#af"/><use transform="matrix(0.05,0,0,0.05,34.95,0)" xlink:href="#ac"/><use transform="matrix(0.05,0,0,0.05,39.95,0)" xlink:href="#aa"/><use transform="matrix(0.05,0,0,0.05,49.95,0)" xlink:href="#az"/><use transform="matrix(0.05,0,0,0.05,64.9,0)" xlink:href="#aa"/><use transform="matrix(0.05,0,0,0.05,74.9,0)" xlink:href="#ab"/><use transform="matrix(0.05,0,0,0.05,84.9,0)" xlink:href="#an"/><use transform="matrix(0.05,0,0,0.05,94.9,0)" xlink:href="#ag"/><use transform="matrix(0.05,0,0,0.05,100.85000000000001,0)" xlink:href="#al"/></g><g id="v"><use transform="matrix(0.05,0,0,0.05,0,0)" xlink:href="#aA"/><use transform="matrix(0.05,0,0,0.05,12.950000000000001,0)" xlink:href="#ai"/><use transform="matrix(0.05,0,0,0.05,18.900000000000002,0)" xlink:href="#aq"/><use transform="matrix(0.05,0,0,0.05,28.900000000000002,0)" xlink:href="#ap"/><use transform="matrix(0.05,0,0,0.05,38.900000000000006,0)" xlink:href="#aA"/><use transform="matrix(0.05,0,0,0.05,51.85,0)" xlink:href="#aq"/><use transform="matrix(0.05,0,0,0.05,61.85,0)" xlink:href="#aB"/><use transform="matrix(0.05,0,0,0.05,74.80000000000001,0)" xlink:href="#ab"/></g><path d="M205 0l-28-72H64L36 0H1l101-248h38L239 0h-34zm-38-99l-47-123c-12 45-31 82-46 123h93" id="aC"/><g id="w"><use transform="matrix(0.05,0,0,0.05,0,0)" xlink:href="#aC"/><use transform="matrix(0.05,0,0,0.05,12,0)" xlink:href="#ab"/><use transform="matrix(0.05,0,0,0.05,22,0)" xlink:href="#ar"/><use transform="matrix(0.05,0,0,0.05,32,0)" xlink:href="#ai"/><use transform="matrix(0.05,0,0,0.05,37.95,0)" xlink:href="#aq"/><use transform="matrix(0.05,0,0,0.05,47.95,0)" xlink:href="#Z"/><use transform="matrix(0.05,0,0,0.05,51.900000000000006,0)" xlink:href="#ar"/><use transform="matrix(0.05,0,0,0.05,61.900000000000006,0)" xlink:href="#aw"/><use transform="matrix(0.05,0,0,0.05,74.85000000000001,0)" xlink:href="#ax"/><use transform="matrix(0.05,0,0,0.05,79.85000000000001,0)" xlink:href="#am"/><use transform="matrix(0.05,0,0,0.05,90.80000000000001,0)" xlink:href="#af"/><use transform="matrix(0.05,0,0,0.05,100.80000000000001,0)" xlink:href="#au"/><use transform="matrix(0.05,0,0,0.05,109.80000000000001,0)" xlink:href="#ac"/><use transform="matrix(0.05,0,0,0.05,114.80000000000001,0)" xlink:href="#aq"/><use transform="matrix(0.05,0,0,0.05,124.80000000000001,0)" xlink:href="#ai"/><use transform="matrix(0.05,0,0,0.05,130.75,0)" xlink:href="#av"/></g><path d="M140-251c81 0 123 46 123 126C263-46 219 4 140 4 59 4 17-45 17-125s42-126 123-126zm0 227c63 0 89-41 89-101s-29-99-89-99c-61 0-89 39-89 99S79-25 140-24" id="aD"/><g id="x"><use transform="matrix(0.05,0,0,0.05,0,0)" xlink:href="#ax"/><use transform="matrix(0.05,0,0,0.05,5,0)" xlink:href="#aD"/><use transform="matrix(0.05,0,0,0.05,19,0)" xlink:href="#ah"/><use transform="matrix(0.05,0,0,0.05,31,0)" xlink:href="#aw"/><use transform="matrix(0.05,0,0,0.05,43.95,0)" xlink:href="#ax"/><use transform="matrix(0.05,0,0,0.05,48.95,0)" xlink:href="#am"/><use transform="matrix(0.05,0,0,0.05,59.900000000000006,0)" xlink:href="#af"/><use transform="matrix(0.05,0,0,0.05,69.9,0)" xlink:href="#au"/><use transform="matrix(0.05,0,0,0.05,78.9,0)" xlink:href="#ac"/><use transform="matrix(0.05,0,0,0.05,83.9,0)" xlink:href="#aq"/><use transform="matrix(0.05,0,0,0.05,93.9,0)" xlink:href="#ai"/><use transform="matrix(0.05,0,0,0.05,99.85000000000001,0)" xlink:href="#av"/></g><g id="y"><use transform="matrix(0.05,0,0,0.05,0,0)" xlink:href="#ah"/><use transform="matrix(0.05,0,0,0.05,12,0)" xlink:href="#an"/><use transform="matrix(0.05,0,0,0.05,22,0)" xlink:href="#ap"/><use transform="matrix(0.05,0,0,0.05,32,0)" xlink:href="#ap"/><use transform="matrix(0.05,0,0,0.05,42,0)" xlink:href="#aq"/><use transform="matrix(0.05,0,0,0.05,52,0)" xlink:href="#ai"/><use transform="matrix(0.05,0,0,0.05,57.95,0)" xlink:href="#ac"/><use transform="matrix(0.05,0,0,0.05,62.95,0)" xlink:href="#aa"/><use transform="matrix(0.05,0,0,0.05,72.95,0)" xlink:href="#ar"/><use transform="matrix(0.05,0,0,0.05,82.95,0)" xlink:href="#as"/><use transform="matrix(0.05,0,0,0.05,94.95,0)" xlink:href="#Y"/><use transform="matrix(0.05,0,0,0.05,98.9,0)" xlink:href="#af"/><use transform="matrix(0.05,0,0,0.05,108.9,0)" xlink:href="#ac"/><use transform="matrix(0.05,0,0,0.05,113.9,0)" xlink:href="#at"/><use transform="matrix(0.05,0,0,0.05,118.9,0)" xlink:href="#aq"/><use transform="matrix(0.05,0,0,0.05,128.9,0)" xlink:href="#ai"/><use transform="matrix(0.05,0,0,0.05,134.85,0)" xlink:href="#ae"/><use transform="matrix(0.05,0,0,0.05,149.79999999999998,0)" xlink:href="#ak"/></g><path d="M18-100v-36l175-74v27L42-118l151 64v27" id="aE"/><path d="M30 0v-248h187v28H63v79h144v27H63v87h162V0H30" id="aF"/><path d="M18-27v-27l151-64-151-65v-27l175 74v36" id="aG"/><g id="z"><use transform="matrix(0.05,0,0,0.05,0,0)" xlink:href="#aE"/><use transform="matrix(0.05,0,0,0.05,10.5,0)" xlink:href="#aE"/><use transform="matrix(0.05,0,0,0.05,21,0)" xlink:href="#aF"/><use transform="matrix(0.05,0,0,0.05,33,0)" xlink:href="#ab"/><use transform="matrix(0.05,0,0,0.05,43,0)" xlink:href="#an"/><use transform="matrix(0.05,0,0,0.05,53,0)" xlink:href="#ae"/><use transform="matrix(0.05,0,0,0.05,67.95,0)" xlink:href="#aa"/><use transform="matrix(0.05,0,0,0.05,77.95,0)" xlink:href="#ai"/><use transform="matrix(0.05,0,0,0.05,83.9,0)" xlink:href="#af"/><use transform="matrix(0.05,0,0,0.05,93.9,0)" xlink:href="#ac"/><use transform="matrix(0.05,0,0,0.05,98.9,0)" xlink:href="#Z"/><use transform="matrix(0.05,0,0,0.05,102.85000000000001,0)" xlink:href="#aq"/><use transform="matrix(0.05,0,0,0.05,112.85000000000001,0)" xlink:href="#ab"/><use transform="matrix(0.05,0,0,0.05,122.85000000000001,0)" xlink:href="#aG"/><use transform="matrix(0.05,0,0,0.05,133.35000000000002,0)" xlink:href="#aG"/></g><g id="A"><use transform="matrix(0.05,0,0,0.05,0,0)" xlink:href="#ax"/><use transform="matrix(0.05,0,0,0.05,5,0)" xlink:href="#aD"/><use transform="matrix(0.05,0,0,0.05,19,0)" xlink:href="#ah"/></g><path d="M190 0L58-211 59 0H30v-248h39L202-35l-2-213h31V0h-41" id="aH"/><path d="M233-177c-1 41-23 64-60 70L243 0h-38l-65-103H63V0H30v-248c88 3 205-21 203 71zM63-129c60-2 137 13 137-47 0-61-80-42-137-45v92" id="aI"/><g id="B"><use transform="matrix(0.05,0,0,0.05,0,0)" xlink:href="#aC"/><use transform="matrix(0.05,0,0,0.05,12,0)" xlink:href="#aH"/><use transform="matrix(0.05,0,0,0.05,24.950000000000003,0)" xlink:href="#aA"/><use transform="matrix(0.05,0,0,0.05,37.900000000000006,0)" xlink:href="#aI"/><use transform="matrix(0.05,0,0,0.05,50.85000000000001,0)" xlink:href="#aD"/><use transform="matrix(0.05,0,0,0.05,64.85000000000001,0)" xlink:href="#ax"/><use transform="matrix(0.05,0,0,0.05,69.85000000000001,0)" xlink:href="#aA"/></g><path d="M266 0h-40l-56-210L115 0H75L2-248h35L96-30l15-64 43-154h32l59 218 59-218h35" id="aJ"/><g id="C"><use transform="matrix(0.05,0,0,0.05,0,0)" xlink:href="#aJ"/><use transform="matrix(0.05,0,0,0.05,16.95,0)" xlink:href="#aF"/><use transform="matrix(0.05,0,0,0.05,28.950000000000003,0)" xlink:href="#ay"/></g><g id="D"><use transform="matrix(0.05,0,0,0.05,0,0)" xlink:href="#aC"/><use transform="matrix(0.05,0,0,0.05,12,0)" xlink:href="#ab"/><use transform="matrix(0.05,0,0,0.05,22,0)" xlink:href="#ar"/><use transform="matrix(0.05,0,0,0.05,32,0)" xlink:href="#ai"/><use transform="matrix(0.05,0,0,0.05,37.95,0)" xlink:href="#aq"/><use transform="matrix(0.05,0,0,0.05,47.95,0)" xlink:href="#Z"/><use transform="matrix(0.05,0,0,0.05,51.900000000000006,0)" xlink:href="#ar"/><use transform="matrix(0.05,0,0,0.05,61.900000000000006,0)" xlink:href="#ay"/><use transform="matrix(0.05,0,0,0.05,73.9,0)" xlink:href="#an"/><use transform="matrix(0.05,0,0,0.05,83.9,0)" xlink:href="#ac"/><use transform="matrix(0.05,0,0,0.05,88.9,0)" xlink:href="#ac"/><use transform="matrix(0.05,0,0,0.05,93.9,0)" xlink:href="#aq"/><use transform="matrix(0.05,0,0,0.05,103.9,0)" xlink:href="#ab"/></g><g id="E"><use transform="matrix(0.05,0,0,0.05,0,0)" xlink:href="#ax"/><use transform="matrix(0.05,0,0,0.05,5,0)" xlink:href="#aD"/><use transform="matrix(0.05,0,0,0.05,19,0)" xlink:href="#ah"/><use transform="matrix(0.05,0,0,0.05,31,0)" xlink:href="#ay"/><use transform="matrix(0.05,0,0,0.05,43,0)" xlink:href="#an"/><use transform="matrix(0.05,0,0,0.05,53,0)" xlink:href="#ac"/><use transform="matrix(0.05,0,0,0.05,58,0)" xlink:href="#ac"/><use transform="matrix(0.05,0,0,0.05,63,0)" xlink:href="#aq"/><use transform="matrix(0.05,0,0,0.05,73,0)" xlink:href="#ab"/></g><g id="F"><use transform="matrix(0.05,0,0,0.05,0,0)" xlink:href="#ax"/><use transform="matrix(0.05,0,0,0.05,5,0)" xlink:href="#aD"/><use transform="matrix(0.05,0,0,0.05,19,0)" xlink:href="#ah"/><use transform="matrix(0.05,0,0,0.05,31,0)" xlink:href="#aA"/><use transform="matrix(0.05,0,0,0.05,43.95,0)" xlink:href="#ai"/><use transform="matrix(0.05,0,0,0.05,49.900000000000006,0)" xlink:href="#aq"/><use transform="matrix(0.05,0,0,0.05,59.900000000000006,0)" xlink:href="#ap"/><use transform="matrix(0.05,0,0,0.05,69.9,0)" xlink:href="#aA"/><use transform="matrix(0.05,0,0,0.05,82.85000000000001,0)" xlink:href="#aq"/><use transform="matrix(0.05,0,0,0.05,92.85000000000001,0)" xlink:href="#aB"/><use transform="matrix(0.05,0,0,0.05,105.80000000000001,0)" xlink:href="#ab"/></g><g id="G"><use transform="matrix(0.05,0,0,0.05,0,0)" xlink:href="#ax"/><use transform="matrix(0.05,0,0,0.05,5,0)" xlink:href="#aD"/><use transform="matrix(0.05,0,0,0.05,19,0)" xlink:href="#ah"/><use transform="matrix(0.05,0,0,0.05,31,0)" xlink:href="#az"/><use transform="matrix(0.05,0,0,0.05,45.95,0)" xlink:href="#aa"/><use transform="matrix(0.05,0,0,0.05,55.95,0)" xlink:href="#ab"/><use transform="matrix(0.05,0,0,0.05,65.95,0)" xlink:href="#an"/></g><g id="H"><use transform="matrix(0.05,0,0,0.05,0,0)" xlink:href="#aC"/><use transform="matrix(0.05,0,0,0.05,12,0)" xlink:href="#ak"/><use transform="matrix(0.05,0,0,0.05,21,0)" xlink:href="#ak"/><use transform="matrix(0.05,0,0,0.05,30,0)" xlink:href="#aq"/><use transform="matrix(0.05,0,0,0.05,40,0)" xlink:href="#au"/><use transform="matrix(0.05,0,0,0.05,49,0)" xlink:href="#Z"/><use transform="matrix(0.05,0,0,0.05,52.95,0)" xlink:href="#af"/><use transform="matrix(0.05,0,0,0.05,62.95,0)" xlink:href="#ac"/><use transform="matrix(0.05,0,0,0.05,67.95,0)" xlink:href="#Z"/><use transform="matrix(0.05,0,0,0.05,71.9,0)" xlink:href="#aq"/><use transform="matrix(0.05,0,0,0.05,81.9,0)" xlink:href="#ab"/></g><g id="I"><use transform="matrix(0.05,0,0,0.05,0,0)" xlink:href="#an"/><use transform="matrix(0.05,0,0,0.05,10,0)" xlink:href="#ak"/><use transform="matrix(0.05,0,0,0.05,19,0)" xlink:href="#aa"/><use transform="matrix(0.05,0,0,0.05,29,0)" xlink:href="#ak"/></g></defs></g></svg>